<svg id="d4de50a6-3b0e-46ac-be5e-2443e8b01c9b" data-name="Capa 1" xmlns="http://www.w3.org/2000/svg" viewBox="0 0 69.96 57.67">
  <title>icon</title>
  <g id="7bd6cbeb-e82a-40af-95fd-9b4e1cbb98a0" data-name="&lt;Grupo&gt;" opacity="0.64">
    <path id="453ffb3a-b844-4011-9c0e-672308fbfc5b" data-name="&lt;Trazado compuesto&gt;" d="M50.33,21.94A4.72,4.72,0,0,0,49,19.55l-8.71-8.7a4.69,4.69,0,0,0-2.55-1.31l0,0-.07-.06H24.55a4.67,4.67,0,0,0-4.67,4.68V45.71a4.74,4.74,0,0,0,4.67,4.44H45.69a4.68,4.68,0,0,0,4.67-4.67V22.07ZM39.07,14l6.76,6.75H40.7a1.64,1.64,0,0,1-1.63-1.63Zm8.2,31.52a1.59,1.59,0,0,1-1.58,1.58H24.55A1.59,1.59,0,0,1,23,45.48V14.17a1.59,1.59,0,0,1,1.58-1.58H36v6.49a4.72,4.72,0,0,0,4.72,4.72h6.57Z" fill="#1c233e"/>
    <path id="24e209f2-f5e0-4934-8bb4-50dc50249dee" data-name="&lt;Trazado&gt;" d="M43.09,38.45H27.15a1.55,1.55,0,1,0,0,3.09H43.09a1.55,1.55,0,1,0,0-3.09Z" fill="#1c233e"/>
    <path id="2d916b00-2ed0-4594-9e71-0f2eb7ebe5bd" data-name="&lt;Trazado&gt;" d="M43.09,32.23H27.15a1.55,1.55,0,1,0,0,3.09H43.09a1.55,1.55,0,1,0,0-3.09Z" fill="#1c233e"/>
  </g>
</svg>
