<svg id="a7336039-28c3-4cf8-adc9-03d46252d0e8" data-name="Capa 1" xmlns="http://www.w3.org/2000/svg" viewBox="0 0 69.96 57.67">
  <title>icon</title>
  <path id="38fdcfac-3a46-4b1e-98f4-f13b2e101cf8" data-name="&lt;Trazado compuesto&gt;" d="M57.62,45.41H14.47V8.36a1.1,1.1,0,1,0-2.2,0V46.51a1.11,1.11,0,0,0,1.1,1.11H57.62a1.11,1.11,0,0,0,0-2.21ZM18.37,37.93h0l.07.05a4.21,4.21,0,0,0,3.15.44l.07,0a4.08,4.08,0,0,0,2.55-2h0a4.12,4.12,0,0,0,.42-3.19l-.08-.3,7.05-7.05a4.1,4.1,0,0,0,2.47.09l.29-.09L37,28.53a4.21,4.21,0,0,0-.1,2.47,4.29,4.29,0,0,0,2,2.55A4.16,4.16,0,0,0,42,34h.07a4.27,4.27,0,0,0,2.56-2,4.37,4.37,0,0,0,.41-3.19L45,28.53l6.28-6.27a4.27,4.27,0,0,0,2.46.09,4.05,4.05,0,0,0,2.56-2h0a4.18,4.18,0,0,0,.42-3.19,4.22,4.22,0,0,0-2-2.55h0a4.17,4.17,0,0,0-3.19-.41A4.09,4.09,0,0,0,49,16.17h0a4.34,4.34,0,0,0-.42,3.2l.09.29-6.27,6.27A4,4,0,0,0,40,25.84H39.9l-.29.09L37,23.27A4,4,0,0,0,37,20.81a4,4,0,0,0-2-2.56,4.2,4.2,0,0,0-5.74,1.54h0A4.13,4.13,0,0,0,28.91,23l.08.31-7.07,7a4.2,4.2,0,0,0-2.41-.1l-.06,0a4.37,4.37,0,0,0-2.57,2,4.21,4.21,0,0,0-.4,3.2,4.1,4.1,0,0,0,1.88,2.51ZM50.68,18.8h0a2.12,2.12,0,0,1,.16-1.44l.08-.13a2.07,2.07,0,0,1,1.18-.89,2.1,2.1,0,0,1,1.47.16l.12.07a1.85,1.85,0,0,1,.88,1.2,1.89,1.89,0,0,1-.13,1.45l-.08.12a2.34,2.34,0,0,1-1.18.9,2.24,2.24,0,0,1-1.48-.17L51.57,20a2,2,0,0,1-.89-1.18ZM39.21,29h0l.06-.12a2.19,2.19,0,0,1,1.19-.9h0a2,2,0,0,1,1.48.21l0,0a1.9,1.9,0,0,1,.9,1.2,1.94,1.94,0,0,1-.2,1.52,2,2,0,0,1-1.2.94h-.05A2.1,2.1,0,0,1,40,31.7L40,31.62a1.92,1.92,0,0,1-.89-1.19A2,2,0,0,1,39.21,29Zm-8-8.09h0A2,2,0,0,1,32.47,20a2,2,0,0,1,1.52.2,2.1,2.1,0,0,1,.94,1.2,2,2,0,0,1-.22,1.54,1.91,1.91,0,0,1-1.2.93,1.93,1.93,0,0,1-1.53-.2,2.14,2.14,0,0,1-.94-1.2,2.06,2.06,0,0,1,.21-1.54ZM18.8,33.32h0A2,2,0,0,1,20,32.41l0,0a1.93,1.93,0,0,1,1.49.21,1.9,1.9,0,0,1,.94,1.22,2,2,0,0,1-.2,1.53,2.11,2.11,0,0,1-1.2.93H21a2,2,0,0,1-1.48-.21h0a1.93,1.93,0,0,1-.89-1.22,2.08,2.08,0,0,1,.17-1.52Z" fill="#1c233e" opacity="0.64"/>
</svg>
