<svg id="86c84b5a-2da0-45af-abe6-f2f8abe43aa0" data-name="Capa 1" xmlns="http://www.w3.org/2000/svg" viewBox="0 0 69.96 57.67">
  <title>icon</title>
  <g id="b3347921-7034-4959-afe4-8edca05e924b" data-name="&lt;Grupo&gt;" opacity="0.64">
    <path id="c4872eb6-c8e5-4cc4-b6b6-f477da4554d5" data-name="&lt;Trazado&gt;" d="M24.57,30.32V43.13a1.12,1.12,0,0,0,.57.94,1.75,1.75,0,0,0,.87.22h5.81l.54-.22.22-.54V37.37h5.79v6.16l.22.54.54.22h5.81a1.76,1.76,0,0,0,.87-.22,1.12,1.12,0,0,0,.57-.94V30.32l-10.9-10Z" fill="#1c233e"/>
    <path id="9b589479-7e28-4c5e-9a75-e51f2637de2c" data-name="&lt;Trazado&gt;" d="M50.62,26.78l-5.08-4.64V14.9a.79.79,0,0,0-.8-.79H42.83a.8.8,0,0,0-.8.79v4l-5.18-4.74a2,2,0,0,0-2.76,0L20.33,26.78a2,2,0,0,0,2.76,3L35.48,18.47,47.86,29.8a2,2,0,0,0,2.76-3Z" fill="#1c233e"/>
  </g>
</svg>
