<svg id="ecf3f190-5448-4857-87f0-82771d73e4d2" data-name="Capa 1" xmlns="http://www.w3.org/2000/svg" viewBox="0 0 69.96 57.67">
  <title>icon</title>
  <g id="e82f71fc-df55-4800-bc34-bb4fce12cb76" data-name="&lt;Grupo&gt;" opacity="0.64">
    <path d="M56.13,17A17.1,17.1,0,0,0,40.49,6.57h-.27a17.1,17.1,0,0,0-17,17.12,17.21,17.21,0,0,0,.29,3.13h-4L18.48,22.7H11.33v3.09h4.75l.37,1.46,4.09,16H44.9L45.51,40q.77-.24,1.51-.56A17.14,17.14,0,0,0,56.13,17ZM41.9,10.11a7.89,7.89,0,0,1,2.79,3.28q.23.44.43.91a27,27,0,0,1-3.23.37ZM36,13.39a7.89,7.89,0,0,1,2.79-3.28v4.56a26.89,26.89,0,0,1-3.23-.37C35.72,14,35.87,13.68,36,13.39Zm-1.43,3.86a29.83,29.83,0,0,0,4.22.51v4.38H33.87A25.62,25.62,0,0,1,34.59,17.25Zm4.22,8v1.58H34q-.09-.78-.13-1.58ZM33.59,11.4l-.31.57q-.39.75-.73,1.58-.7-.23-1.34-.5A14,14,0,0,1,33.59,11.4Zm-4.58,4a20.22,20.22,0,0,0,2.59,1,28.87,28.87,0,0,0-.82,5.66H26.41A13.89,13.89,0,0,1,29,15.44Zm1.77,9.79q0,.8.12,1.58H26.68a14.09,14.09,0,0,1-.26-1.58Zm12.92,7.7-.64,3.42-.43,2.29-.09.47-.2,1.05H22.94L20.32,29.91H44.26Zm3-6.12H41.9V25.24h4.94Q46.8,26,46.72,26.81ZM41.9,22.15V17.76a29.81,29.81,0,0,0,4.22-.51,25.62,25.62,0,0,1,.72,4.89Zm7.61-9.09q-.65.27-1.35.5-.33-.83-.73-1.59l-.31-.57A14,14,0,0,1,49.51,13.06ZM47.13,36l.31-.57q.38-.73.7-1.53.68.22,1.32.48A14,14,0,0,1,47.13,36Zm4.55-4a20,20,0,0,0-2.58-1,28.85,28.85,0,0,0,.84-5.71H54.3A13.88,13.88,0,0,1,51.68,32Zm-1.74-9.83a28.86,28.86,0,0,0-.82-5.66,20.2,20.2,0,0,0,2.6-1,13.89,13.89,0,0,1,2.59,6.7Z" fill="#1c233e"/>
    <path d="M41,44.13H24.43a4.56,4.56,0,1,0,4.32,3.09h7.9A4.56,4.56,0,1,0,41,44.13Zm-16.54,6a1.47,1.47,0,1,1,1.47-1.47A1.47,1.47,0,0,1,24.43,50.17Zm16.54,0a1.47,1.47,0,1,1,1.47-1.47A1.47,1.47,0,0,1,41,50.17Z" fill="#1c233e"/>
  </g>
</svg>
