<svg id="1547e65a-00d4-440b-ae1a-d15c22490b3f" data-name="Capa 1" xmlns="http://www.w3.org/2000/svg" viewBox="0 0 69.96 57.67">
  <title>icon</title>
  <g id="2346b163-51ff-4dbd-91fb-7d91b4e5c367" data-name="&lt;Grupo&gt;" opacity="0.64">
    <g id="34adda58-ef93-487b-9644-01f3450ec8f6" data-name="&lt;Grupo&gt;">
      <path id="15e53a8d-464f-4d0a-be97-8bec6f9e5887" data-name="&lt;Trazado&gt;" d="M37.17,32l-.87,4L37.24,35s3.77-4.31,8-9.2l.48-.55L45,25.19A6.52,6.52,0,0,1,43.76,25l-.22-.06-.15.17c-3.39,3.77-6.12,6.84-6.15,6.87Z" fill="#1c233e"/>
    </g>
    <g id="f9ff9ede-c4ce-479c-bf57-06924df9a6cb" data-name="&lt;Grupo&gt;">
      <path id="4bb53fd0-3d16-40c2-9e0d-6d91ad1e73c3" data-name="&lt;Trazado&gt;" d="M44.53,23.86,58.31,9.2,46,24.58h.57A23.05,23.05,0,0,1,51,25l.27.06L52,23.86l-1.64-.44,1.95-.14.76-1.42-1.53-.7,2.07-.33.92-1.73-1-.28,1.29-.22.9-1.68-.44-.13.56-.1,1.1-2.07-.58-.14.78-.24.79-1.48-.33,0,1-.64,2.53-6.38L56,9l-.66,1.5,0-1L54,10.4l-.29,1.79L53.24,11l-1.61,1.21,0,1.4-.47-1-1.24.93-.07,2.11L49.14,14l-1.33,1-.05,2.84L46.55,16l-1,.78.17,2.59-.88-2.06-1.31,1,.08.25A24.5,24.5,0,0,1,44.53,23.86Z" fill="#1c233e"/>
    </g>
    <g id="0c07c447-89d9-4fe8-ba44-925f45de1471" data-name="&lt;Grupo&gt;">
      <path id="90245c7d-4de2-4bff-80ea-1a471e535f58" data-name="&lt;Trazado&gt;" d="M61.24,28.36H53.06l-.1.07a3.3,3.3,0,0,0-1.54,2.63,4.29,4.29,0,0,0,1.37,3l.1.08h8.49l.1-.08a4.29,4.29,0,0,0,1.37-3,3.3,3.3,0,0,0-1.54-2.63Z" fill="#1c233e"/>
    </g>
    <g id="9a55f563-3914-4fff-b0a5-78fe2677ae76" data-name="&lt;Grupo&gt;">
      <path id="4d280879-5ba7-464b-94dd-b0ca2e5efb60" data-name="&lt;Trazado&gt;" d="M54,24.89a1.38,1.38,0,0,0-1.49,1.23A1.38,1.38,0,0,0,54,27.36h6.22a1.38,1.38,0,0,0,1.49-1.23,1.38,1.38,0,0,0-1.49-1.23Z" fill="#1c233e"/>
    </g>
    <g id="0b172f57-d6f5-4b89-ae15-1b7c6599d923" data-name="&lt;Grupo&gt;">
      <path id="525b6d54-f130-414a-86bc-22152e1ab3d5" data-name="&lt;Trazado&gt;" d="M61.51,35.22H52.79a1,1,0,0,0,0,1.93h8.72a1,1,0,0,0,0-1.93Z" fill="#1c233e"/>
    </g>
    <g id="0f96a6a2-376e-49c6-b5af-0113dcb5fca5" data-name="&lt;Grupo&gt;">
      <path id="57a11d8e-6969-453e-b739-521374288582" data-name="&lt;Trazado&gt;" d="M22.24,41.74V35a1.81,1.81,0,0,0-3.61,0V46.7H18l-.63-3.22a2.34,2.34,0,0,0-1.86,2.29c-.1,2.59,2.06,5.27,5.08,6.82v1.58h6.09V52.64h0l2.53-1.91v-5.9l-6.14-2.66Z" fill="#1c233e"/>
    </g>
    <g id="35076ff5-2288-4216-9a0d-740e4f134fa6" data-name="&lt;Grupo&gt;">
      <path id="6049d409-18e9-4c3b-b71e-cb47447decea" data-name="&lt;Trazado&gt;" d="M50.6,36.18a2.19,2.19,0,0,1,.83-1.72,5.75,5.75,0,0,1-1.23-3.4,4.38,4.38,0,0,1,1.73-3.39,2.34,2.34,0,0,1-.59-1.3l-.56-.13A22.22,22.22,0,0,0,48,25.86c0,4.8.05,11.56,0,14.81a14.44,14.44,0,0,1-4.3-1.16A12.27,12.27,0,0,0,39,38.39a12.8,12.8,0,0,0-5.5,1.45V21a9.58,9.58,0,0,1,5.55-2.27,8.82,8.82,0,0,1,3.55.91c-.12-.46-.2-.74-.21-.75l-.34-1.08,1.1-.82a10.58,10.58,0,0,0-4.11-.91,11.81,11.81,0,0,0-7,2.72,11.41,11.41,0,0,0-6.95-2.72,14,14,0,0,0-6,1.73A11.66,11.66,0,0,1,15,19.17l-1.32.08.07,1.32c0,.12,0,.27,0,.43a6.75,6.75,0,0,1-1.07.15l-1.5.08.08,1.43c.15,2.73.05,16.11,0,21.83l0,2.79,1.49,0c.42,0,.83,0,1.22,0a6.38,6.38,0,0,1-.14-1.58A4,4,0,0,1,16.38,42V39.43a1.42,1.42,0,0,1,0-.28c0-5.16.09-13.86,0-17.51a17.83,17.83,0,0,0,3.77-1.43,11.63,11.63,0,0,1,4.89-1.48c1.8,0,3.7.83,5.78,2.53V39.78a12,12,0,0,0-5.37-1.52,8,8,0,0,0-1.54.15v2.29l.78.34,6.19,2.69v3.09l.48.28.77.45.78-.43c2.86-1.58,5.08-2.32,7-2.32a11.66,11.66,0,0,1,4.23,1,18.61,18.61,0,0,0,7.11,1.5h.36l1.42,0,.06-1.35c.06-1.27.08-4.19.08-7.54h-.38A2.2,2.2,0,0,1,50.6,36.18Z" fill="#1c233e"/>
    </g>
  </g>
</svg>
